<svg xmlns="http://www.w3.org/2000/svg" xmlns:xlink="http://www.w3.org/1999/xlink" viewBox="0 0 1247.81 816.6"><defs><style>.cls-1,.cls-2{fill:none;stroke:#be1622;stroke-miterlimit:10;}.cls-1{stroke-width:9px;}.cls-2{stroke-width:8px;}.cls-3{fill:#be1622;}.cls-4{font-size:170.29px;fill:#fff;font-family:FashionFetishHeavy, Fashion Fetish Heavy;}</style></defs><g id="Capa_2" data-name="Capa 2"><g id="Capa_1-2" data-name="Capa 1"><image width="4200" height="2803" transform="matrix(0.11, -0.02, 0.02, 0.1, 721.96, 504.79)" xlink:href="../../../../../../../Downloads/spider-7516035.jpg"/><image width="5187" height="3450" transform="matrix(0.08, 0.02, -0.02, 0.08, 77.99, 447.65)" xlink:href="../../../../../../../Downloads/spider-436947.jpg"/><image width="4256" height="2832" transform="translate(759.4) rotate(8.52) scale(0.12 0.1)" xlink:href="../../../../../../../Downloads/spider-195836.jpg"/><image width="1920" height="1280" transform="matrix(0.25, -0.02, 0.02, 0.26, 0, 101.2)" xlink:href="../../../../../../../Downloads/jumping-spider-1130449_1920.jpg"/><image width="3543" height="2362" transform="matrix(0.14, -0.03, 0.03, 0.14, 332.9, 270.47)" xlink:href="../../../../../../../Downloads/spider-1772769%20(1).jpg"/><ellipse class="cls-1" cx="332.9" cy="436.75" rx="44.38" ry="60.75"/><path class="cls-1" d="M283.19,317.81q-.17,35.16-.34,70.31h0a17,17,0,0,0,3.74,6.72s1.21,1.26,6.81,4.48h0"/><path class="cls-1" d="M255.67,279.49l-1.08,120.4h0a32.26,32.26,0,0,0,11.9,11.5s3.83,2.17,21.63,7.67h0"/><path class="cls-1" d="M406.13,299.64l1,103h0a28.25,28.25,0,0,1-10.58,9.84s-3.4,1.85-19.23,6.56h0"/><path class="cls-1" d="M255.67,589.33l-1.08-124.85h0a32.91,32.91,0,0,1,11.9-11.93s3.83-2.25,21.63-7.95h0"/><path class="cls-1" d="M408.72,566l1-104.74h0a28.32,28.32,0,0,0-10.58-10s-3.4-1.89-19.23-6.67h0"/><path class="cls-1" d="M281.8,548.6q-.17-36.93-.34-73.87h0a18.25,18.25,0,0,1,3.75-7.05s1.2-1.33,6.8-4.71h0"/><text/><path class="cls-1" d="M381.45,525.28q.19-26.88.38-53.75h0a13.06,13.06,0,0,0-4.23-5.13s-1.36-1-7.69-3.43h0"/><ellipse class="cls-2" cx="407.09" cy="291.15" rx="10.67" ry="11.66"/><ellipse class="cls-2" cx="380.87" cy="329.47" rx="10.67" ry="11.66"/><ellipse class="cls-2" cx="380.87" cy="536.94" rx="10.67" ry="11.66"/><ellipse class="cls-2" cx="407.09" cy="577.67" rx="10.67" ry="11.66"/><line class="cls-1" x1="332.9" y1="376" x2="332.9" y2="497.5"/><path class="cls-3" d="M319.27,401.2A43.77,43.77,0,0,0,311.84,419a2.57,2.57,0,0,0,1.75,3.07,2.54,2.54,0,0,0,3.07-1.74l6.41-18.78h-4.82a20.78,20.78,0,0,1-.45,7.66,2.56,2.56,0,0,0,1.75,3.08,2.53,2.53,0,0,0,3.07-1.75,27.17,27.17,0,0,0,.45-10.32,2.5,2.5,0,0,0-2.41-1.83,2.58,2.58,0,0,0-2.41,1.83L311.84,419l4.82,1.33a40.51,40.51,0,0,1,6.92-16.58,2.51,2.51,0,0,0-.89-3.42,2.56,2.56,0,0,0-3.42.9Z"/><path class="cls-3" d="M311.78,451.78a25.06,25.06,0,0,0,15.91-6.59,24.92,24.92,0,0,0,6.59-15.91c-.26-5.82-2.17-11.86-6.59-15.91a23.38,23.38,0,0,0-15.91-6.59,25,25,0,0,0-15.91,6.59,25.06,25.06,0,0,0-6.59,15.91c.26,5.82,2.18,11.85,6.59,15.91a23.41,23.41,0,0,0,15.91,6.59Z"/><path class="cls-3" d="M289.29,429.28a151.35,151.35,0,0,0-.16,20.09A21.71,21.71,0,0,0,303,469.93a16.9,16.9,0,0,0,8.67,1.94l6-.8a22.51,22.51,0,0,0,9.93-5.79l3.52-4.55a22.34,22.34,0,0,0,3.07-11.36,151.35,151.35,0,0,1,.16-20.09,21.75,21.75,0,0,0-13.83-20.57,17,17,0,0,0-8.67-1.93l-6,.8a22.4,22.4,0,0,0-9.93,5.79l-3.52,4.55a22.34,22.34,0,0,0-3.07,11.36Z"/><path class="cls-3" d="M313.83,484.11a15.48,15.48,0,0,0,10.6-4.4,15.24,15.24,0,0,0,4.4-10.6c-.18-3.88-1.45-7.91-4.4-10.61a15,15,0,0,0-21.21,0,15.23,15.23,0,0,0-4.39,10.61c.17,3.88,1.44,7.9,4.39,10.6a15.57,15.57,0,0,0,10.61,4.4Z"/><path class="cls-3" d="M317.23,482.74a15.47,15.47,0,0,0,10.61-4.39,15.23,15.23,0,0,0,4.39-10.61c-.17-3.87-1.45-7.9-4.39-10.6a15,15,0,0,0-21.22,0,15.23,15.23,0,0,0-4.39,10.6c.17,3.88,1.45,7.91,4.39,10.61a15.58,15.58,0,0,0,10.61,4.39Z"/><path class="cls-3" d="M315.53,424.19a15.47,15.47,0,0,0,10.61-4.39,15.23,15.23,0,0,0,4.39-10.61c-.17-3.88-1.45-7.9-4.39-10.61a15.63,15.63,0,0,0-10.61-4.39,15.47,15.47,0,0,0-10.61,4.39,15.25,15.25,0,0,0-4.39,10.61c.17,3.88,1.45,7.9,4.39,10.61a15.61,15.61,0,0,0,10.61,4.39Z"/><path class="cls-3" d="M316.21,421.13a15.48,15.48,0,0,0,10.61-4.4,15.23,15.23,0,0,0,4.39-10.6c-.17-3.88-1.45-7.91-4.39-10.61a15.63,15.63,0,0,0-10.61-4.39,15.47,15.47,0,0,0-10.61,4.39,15.23,15.23,0,0,0-4.39,10.61c.17,3.88,1.45,7.9,4.39,10.6a15.59,15.59,0,0,0,10.61,4.4Z"/><path class="cls-3" d="M307.36,429a15.5,15.5,0,0,0,10.61-4.4,15.23,15.23,0,0,0,4.39-10.6c-.18-3.88-1.45-7.91-4.39-10.61A15.63,15.63,0,0,0,307.36,399a15.47,15.47,0,0,0-10.61,4.39A15.23,15.23,0,0,0,292.36,414c.17,3.88,1.45,7.9,4.39,10.6a15.57,15.57,0,0,0,10.61,4.4Z"/><path class="cls-3" d="M308.72,425.89a15.47,15.47,0,0,0,10.61-4.39,15.23,15.23,0,0,0,4.39-10.61c-.17-3.88-1.45-7.9-4.39-10.6a15,15,0,0,0-21.22,0,15.23,15.23,0,0,0-4.39,10.6c.17,3.88,1.45,7.91,4.39,10.61a15.63,15.63,0,0,0,10.61,4.39Z"/><path class="cls-3" d="M310.76,419.77a15.48,15.48,0,0,0,10.61-4.4,15.23,15.23,0,0,0,4.39-10.6c-.17-3.88-1.45-7.91-4.39-10.61a15,15,0,0,0-21.21,0,15.24,15.24,0,0,0-4.4,10.61c.18,3.88,1.45,7.9,4.4,10.6a15.55,15.55,0,0,0,10.6,4.4Z"/><path class="cls-3" d="M314.85,412.62a15.48,15.48,0,0,0,10.6-4.4,15.19,15.19,0,0,0,4.4-10.6c-.18-3.88-1.45-7.91-4.4-10.61a15,15,0,0,0-21.21,0,15.23,15.23,0,0,0-4.39,10.61c.17,3.88,1.45,7.9,4.39,10.6a15.57,15.57,0,0,0,10.61,4.4Z"/><path class="cls-3" d="M316.21,410.57a15.47,15.47,0,0,0,10.61-4.39,15.23,15.23,0,0,0,4.39-10.61c-.17-3.87-1.45-7.9-4.39-10.6a15,15,0,0,0-21.22,0,15.23,15.23,0,0,0-4.39,10.6c.17,3.88,1.45,7.91,4.39,10.61a15.58,15.58,0,0,0,10.61,4.39Z"/><path class="cls-3" d="M317.57,408.19a15.47,15.47,0,0,0,10.61-4.39,15.23,15.23,0,0,0,4.39-10.61c-.17-3.88-1.45-7.9-4.39-10.61a15,15,0,0,0-21.22,0,15.25,15.25,0,0,0-4.39,10.61c.18,3.88,1.45,7.9,4.39,10.61a15.63,15.63,0,0,0,10.61,4.39Z"/><path class="cls-3" d="M318.25,406.83a15.47,15.47,0,0,0,10.61-4.39,15.25,15.25,0,0,0,4.39-10.61c-.17-3.88-1.45-7.9-4.39-10.61a15,15,0,0,0-21.21,0,15.24,15.24,0,0,0-4.4,10.61c.18,3.88,1.45,7.9,4.4,10.61a15.59,15.59,0,0,0,10.6,4.39Z"/><path class="cls-3" d="M314.85,492.28a15.48,15.48,0,0,0,10.6-4.4,15.19,15.19,0,0,0,4.4-10.6c-.18-3.88-1.45-7.91-4.4-10.61a15,15,0,0,0-21.21,0,15.23,15.23,0,0,0-4.39,10.61c.17,3.88,1.45,7.9,4.39,10.6a15.57,15.57,0,0,0,10.61,4.4Z"/><path class="cls-3" d="M316.89,494.66a15.47,15.47,0,0,0,10.61-4.39,15.25,15.25,0,0,0,4.39-10.61c-.17-3.88-1.45-7.9-4.39-10.61a15.63,15.63,0,0,0-10.61-4.39,15.47,15.47,0,0,0-10.61,4.39,15.23,15.23,0,0,0-4.39,10.61c.17,3.88,1.45,7.9,4.39,10.61a15.63,15.63,0,0,0,10.61,4.39Z"/><path class="cls-3" d="M318.59,496.7a15.47,15.47,0,0,0,10.61-4.39,15.23,15.23,0,0,0,4.39-10.61c-.17-3.88-1.45-7.9-4.39-10.6a15,15,0,0,0-21.21,0,15.24,15.24,0,0,0-4.4,10.6c.18,3.88,1.45,7.9,4.4,10.61a15.59,15.59,0,0,0,10.6,4.39Z"/><text class="cls-4" transform="translate(423.12 494.12) scale(0.9 1)">Spidy</text></g></g></svg>