<svg xmlns="http://www.w3.org/2000/svg" viewBox="0 0 226.98 325.39"><defs><style>.cls-1,.cls-2{fill:none;stroke:#be1622;stroke-miterlimit:10;}.cls-1{stroke-width:9px;}.cls-2{stroke-width:8px;}.cls-3{fill:#be1622;}.cls-4{font-size:180px;fill:#fff;font-family:FashionFetishHeavy, Fashion Fetish Heavy;}</style></defs><g id="Capa_2" data-name="Capa 2"><g id="Capa_1-2" data-name="Capa 1"><ellipse class="cls-1" cx="82.82" cy="161.26" rx="44.37" ry="60.75"/><path class="cls-1" d="M33.11,42.32q-.18,35.16-.34,70.31h0a17,17,0,0,0,3.74,6.72s1.21,1.27,6.81,4.48h0"/><path class="cls-1" d="M5.59,4,4.51,124.4h0a32.39,32.39,0,0,0,11.9,11.51s3.83,2.16,21.63,7.66h0"/><path class="cls-1" d="M156.05,24.16l1,103h0A28.4,28.4,0,0,1,146.43,137s-3.4,1.85-19.23,6.56h0"/><path class="cls-1" d="M5.59,313.84,4.51,189h0a32.91,32.91,0,0,1,11.9-11.93s3.83-2.25,21.63-7.95h0"/><path class="cls-1" d="M158.64,290.52l1-104.74h0a28.55,28.55,0,0,0-10.58-10s-3.4-1.89-19.23-6.67h0"/><path class="cls-1" d="M31.72,273.11q-.16-36.93-.34-73.86h0a18.38,18.38,0,0,1,3.74-7.06s1.21-1.33,6.81-4.71h0"/><path class="cls-1" d="M132.94,61.36l.42,53.44h0a13.57,13.57,0,0,1-4.66,5.11s-1.5,1-8.48,3.4h0"/><path class="cls-1" d="M131.37,249.79q.18-26.88.38-53.75h0a13.14,13.14,0,0,0-4.23-5.13s-1.36-1-7.7-3.43h0"/><ellipse class="cls-2" cx="157.01" cy="15.66" rx="10.67" ry="11.66"/><ellipse class="cls-2" cx="130.79" cy="53.98" rx="10.67" ry="11.66"/><ellipse class="cls-2" cx="130.79" cy="261.45" rx="10.67" ry="11.66"/><ellipse class="cls-2" cx="157.01" cy="302.18" rx="10.67" ry="11.66"/><line class="cls-1" x1="82.82" y1="100.51" x2="82.82" y2="222.01"/><path class="cls-3" d="M69.18,125.71a43.89,43.89,0,0,0-7.42,17.77,2.57,2.57,0,0,0,1.75,3.07,2.54,2.54,0,0,0,3.07-1.74L73,126H68.17a20.78,20.78,0,0,1-.45,7.66A2.5,2.5,0,1,0,72.54,135,27.37,27.37,0,0,0,73,124.7a2.5,2.5,0,0,0-2.41-1.83,2.58,2.58,0,0,0-2.41,1.83l-6.41,18.78,4.82,1.33a40.51,40.51,0,0,1,6.92-16.58,2.51,2.51,0,0,0-.9-3.42,2.56,2.56,0,0,0-3.42.9Z"/><path class="cls-3" d="M61.7,176.29a17,17,0,0,0,8.67-1.94,16.93,16.93,0,0,0,7.24-4.65,16.74,16.74,0,0,0,4.65-7.24,16.92,16.92,0,0,0,1.94-8.67c-.26-5.82-2.17-11.86-6.59-15.91a23.38,23.38,0,0,0-15.91-6.59A16.94,16.94,0,0,0,53,133.23a16.74,16.74,0,0,0-7.24,4.65,16.93,16.93,0,0,0-4.65,7.24,17,17,0,0,0-1.94,8.67c.26,5.82,2.17,11.85,6.59,15.91a23.41,23.41,0,0,0,15.91,6.59Z"/><path class="cls-3" d="M39.2,153.79a153.06,153.06,0,0,0-.15,20.09A16.9,16.9,0,0,0,41,182.55a16.93,16.93,0,0,0,4.65,7.24,16.74,16.74,0,0,0,7.24,4.65,16.9,16.9,0,0,0,8.67,1.94l6-.8a22.51,22.51,0,0,0,9.93-5.79L81,185.24a22.44,22.44,0,0,0,3.07-11.36,153.06,153.06,0,0,1,.15-20.09,16.89,16.89,0,0,0-1.93-8.67,16.86,16.86,0,0,0-4.66-7.24,16.69,16.69,0,0,0-7.24-4.65,16.9,16.9,0,0,0-8.67-1.94l-6,.8a22.42,22.42,0,0,0-9.92,5.79l-3.52,4.55a22.45,22.45,0,0,0-3.08,11.36Z"/><path class="cls-3" d="M63.75,208.62a15.48,15.48,0,0,0,10.6-4.4,15.28,15.28,0,0,0,4.4-10.6c-.18-3.88-1.45-7.91-4.4-10.61a15,15,0,0,0-21.21,0,15.23,15.23,0,0,0-4.39,10.61c.17,3.88,1.44,7.9,4.39,10.6a15.56,15.56,0,0,0,10.61,4.4Z"/><path class="cls-3" d="M67.15,207.26a15.48,15.48,0,0,0,10.61-4.4,15.23,15.23,0,0,0,4.39-10.6c-.17-3.88-1.45-7.91-4.39-10.61a15,15,0,0,0-21.22,0,15.23,15.23,0,0,0-4.39,10.61c.17,3.87,1.45,7.9,4.39,10.6a15.59,15.59,0,0,0,10.61,4.4Z"/><path class="cls-3" d="M65.45,148.7a15.47,15.47,0,0,0,10.6-4.39,15.24,15.24,0,0,0,4.4-10.61c-.18-3.88-1.45-7.9-4.4-10.6a15,15,0,0,0-21.21,0,15.23,15.23,0,0,0-4.39,10.6c.17,3.88,1.45,7.9,4.39,10.61a15.61,15.61,0,0,0,10.61,4.39Z"/><path class="cls-3" d="M66.13,145.64a15.43,15.43,0,0,0,10.6-4.4,15.19,15.19,0,0,0,4.4-10.6c-.18-3.88-1.45-7.9-4.4-10.61a15,15,0,0,0-21.21,0,15.23,15.23,0,0,0-4.39,10.61c.17,3.88,1.45,7.9,4.39,10.6a15.57,15.57,0,0,0,10.61,4.4Z"/><path class="cls-3" d="M57.28,153.47a15.48,15.48,0,0,0,10.6-4.4,15.24,15.24,0,0,0,4.4-10.6c-.18-3.88-1.45-7.9-4.4-10.61a15,15,0,0,0-21.21,0,15.23,15.23,0,0,0-4.39,10.61c.17,3.88,1.45,7.9,4.39,10.6a15.57,15.57,0,0,0,10.61,4.4Z"/><path class="cls-3" d="M58.64,150.4A15.47,15.47,0,0,0,69.25,146a15.23,15.23,0,0,0,4.39-10.61c-.17-3.88-1.45-7.9-4.39-10.6a15,15,0,0,0-21.22,0,15.23,15.23,0,0,0-4.39,10.6c.17,3.88,1.45,7.91,4.39,10.61a15.61,15.61,0,0,0,10.61,4.39Z"/><path class="cls-3" d="M60.68,144.28a15.48,15.48,0,0,0,10.61-4.4,15.23,15.23,0,0,0,4.39-10.6c-.17-3.88-1.45-7.91-4.39-10.61a15,15,0,0,0-21.22,0,15.23,15.23,0,0,0-4.39,10.61c.18,3.88,1.45,7.9,4.39,10.6a15.59,15.59,0,0,0,10.61,4.4Z"/><path class="cls-3" d="M64.77,137.13a15.48,15.48,0,0,0,10.6-4.4,15.28,15.28,0,0,0,4.4-10.6c-.18-3.88-1.45-7.91-4.4-10.61a15,15,0,0,0-21.21,0,15.23,15.23,0,0,0-4.39,10.61c.17,3.88,1.44,7.9,4.39,10.6a15.56,15.56,0,0,0,10.61,4.4Z"/><path class="cls-3" d="M66.13,135.09a15.48,15.48,0,0,0,10.6-4.4,15.19,15.19,0,0,0,4.4-10.6c-.18-3.88-1.45-7.91-4.4-10.61a15,15,0,0,0-21.21,0,15.23,15.23,0,0,0-4.39,10.61c.17,3.87,1.45,7.9,4.39,10.6a15.57,15.57,0,0,0,10.61,4.4Z"/><path class="cls-3" d="M67.49,132.7a15.47,15.47,0,0,0,10.61-4.39,15.23,15.23,0,0,0,4.39-10.61c-.17-3.88-1.45-7.9-4.39-10.6a15,15,0,0,0-21.22,0,15.23,15.23,0,0,0-4.39,10.6c.17,3.88,1.45,7.9,4.39,10.61a15.63,15.63,0,0,0,10.61,4.39Z"/><path class="cls-3" d="M68.17,131.34A15.47,15.47,0,0,0,78.78,127a15.23,15.23,0,0,0,4.39-10.61c-.17-3.88-1.45-7.9-4.39-10.61a15,15,0,0,0-21.22,0,15.25,15.25,0,0,0-4.39,10.61c.17,3.88,1.45,7.9,4.39,10.61a15.63,15.63,0,0,0,10.61,4.39Z"/><path class="cls-3" d="M64.77,216.79a15.48,15.48,0,0,0,10.6-4.4,15.28,15.28,0,0,0,4.4-10.6c-.18-3.88-1.45-7.91-4.4-10.61a15,15,0,0,0-21.21,0,15.23,15.23,0,0,0-4.39,10.61c.17,3.88,1.44,7.9,4.39,10.6a15.56,15.56,0,0,0,10.61,4.4Z"/><path class="cls-3" d="M66.81,219.17a15.47,15.47,0,0,0,10.61-4.39,15.23,15.23,0,0,0,4.39-10.61c-.17-3.88-1.45-7.9-4.39-10.61a15.63,15.63,0,0,0-10.61-4.39,15.47,15.47,0,0,0-10.61,4.39,15.25,15.25,0,0,0-4.39,10.61c.17,3.88,1.45,7.9,4.39,10.61a15.61,15.61,0,0,0,10.61,4.39Z"/><path class="cls-3" d="M68.51,221.21a15.47,15.47,0,0,0,10.61-4.39,15.23,15.23,0,0,0,4.39-10.61c-.17-3.88-1.45-7.9-4.39-10.6a15,15,0,0,0-21.22,0,15.23,15.23,0,0,0-4.39,10.6c.18,3.88,1.45,7.91,4.39,10.61a15.63,15.63,0,0,0,10.61,4.39Z"/><text class="cls-4" transform="translate(101.11 253.39) scale(0.9 1)">S</text></g></g></svg>